<svg xmlns="http://www.w3.org/2000/svg" version="1.1" xmlns:xlink="http://www.w3.org/1999/xlink"
    xmlns:svgjs="http://svgjs.dev/svgjs" width="1440" height="700" preserveAspectRatio="none" viewBox="0 0 1440 700">
    <g mask="url(&quot;#SvgjsMask1290&quot;)" fill="none">
        <path d="M-37.87 493.58L-37.87 493.58" stroke="rgba(75, 85, 99, 1)" stroke-width="1.5"></path>
        <path d="M-37.87 493.58L81.01 524.61" stroke="rgba(75, 85, 99, 1)" stroke-width="1.5"></path>
        <path d="M-37.87 493.58L-38.12 666.53" stroke="rgba(75, 85, 99, 1)" stroke-width="1.5"></path>
        <path d="M-37.87 493.58L57.4 672.87" stroke="rgba(75, 85, 99, 1)" stroke-width="1.5"></path>
        <path d="M-37.87 493.58L230.8 522.48" stroke="rgba(75, 85, 99, 1)" stroke-width="1.5"></path>
        <path d="M-37.87 493.58L-42.14 787.99" stroke="rgba(75, 85, 99, 1)" stroke-width="1.5"></path>
        <path d="M-38.12 666.53L-38.12 666.53" stroke="rgba(75, 85, 99, 1)" stroke-width="1.5"></path>
        <path d="M-38.12 666.53L57.4 672.87" stroke="rgba(75, 85, 99, 1)" stroke-width="1.5"></path>
        <path d="M-38.12 666.53L-42.14 787.99" stroke="rgba(75, 85, 99, 1)" stroke-width="1.5"></path>
        <path d="M-38.12 666.53L81.01 524.61" stroke="rgba(75, 85, 99, 1)" stroke-width="1.5"></path>
        <path d="M-38.12 666.53L45.38 850.72" stroke="rgba(75, 85, 99, 1)" stroke-width="1.5"></path>
        <path d="M-42.14 787.99L-42.14 787.99" stroke="rgba(75, 85, 99, 1)" stroke-width="1.5"></path>
        <path d="M-42.14 787.99L45.38 850.72" stroke="rgba(75, 85, 99, 1)" stroke-width="1.5"></path>
        <path d="M-42.14 787.99L57.4 672.87" stroke="rgba(75, 85, 99, 1)" stroke-width="1.5"></path>
        <path d="M81.01 524.61L81.01 524.61" stroke="rgba(75, 85, 99, 1)" stroke-width="1.5"></path>
        <path d="M81.01 524.61L230.8 522.48" stroke="rgba(75, 85, 99, 1)" stroke-width="1.5"></path>
        <path d="M81.01 524.61L57.4 672.87" stroke="rgba(75, 85, 99, 1)" stroke-width="1.5"></path>
        <path d="M81.01 524.61L249.49 694.48" stroke="rgba(75, 85, 99, 1)" stroke-width="1.5"></path>
        <path d="M81.01 524.61L-42.14 787.99" stroke="rgba(75, 85, 99, 1)" stroke-width="1.5"></path>
        <path d="M57.4 672.87L57.4 672.87" stroke="rgba(75, 85, 99, 1)" stroke-width="1.5"></path>
        <path d="M57.4 672.87L45.38 850.72" stroke="rgba(75, 85, 99, 1)" stroke-width="1.5"></path>
        <path d="M45.38 850.72L45.38 850.72" stroke="rgba(75, 85, 99, 1)" stroke-width="1.5"></path>
        <path d="M45.38 850.72L246.1 840.84" stroke="rgba(75, 85, 99, 1)" stroke-width="1.5"></path>
        <path d="M230.8 522.48L230.8 522.48" stroke="rgba(75, 85, 99, 1)" stroke-width="1.5"></path>
        <path d="M230.8 522.48L384.59 533.02" stroke="rgba(75, 85, 99, 1)" stroke-width="1.5"></path>
        <path d="M230.8 522.48L249.49 694.48" stroke="rgba(75, 85, 99, 1)" stroke-width="1.5"></path>
        <path d="M230.8 522.48L358.89 651.37" stroke="rgba(75, 85, 99, 1)" stroke-width="1.5"></path>
        <path d="M230.8 522.48L57.4 672.87" stroke="rgba(75, 85, 99, 1)" stroke-width="1.5"></path>
        <path d="M249.49 694.48L249.49 694.48" stroke="rgba(75, 85, 99, 1)" stroke-width="1.5"></path>
        <path d="M249.49 694.48L358.89 651.37" stroke="rgba(75, 85, 99, 1)" stroke-width="1.5"></path>
        <path d="M249.49 694.48L246.1 840.84" stroke="rgba(75, 85, 99, 1)" stroke-width="1.5"></path>
        <path d="M249.49 694.48L369.55 800.81" stroke="rgba(75, 85, 99, 1)" stroke-width="1.5"></path>
        <path d="M249.49 694.48L57.4 672.87" stroke="rgba(75, 85, 99, 1)" stroke-width="1.5"></path>
        <path d="M246.1 840.84L246.1 840.84" stroke="rgba(75, 85, 99, 1)" stroke-width="1.5"></path>
        <path d="M246.1 840.84L369.55 800.81" stroke="rgba(75, 85, 99, 1)" stroke-width="1.5"></path>
        <path d="M384.59 533.02L384.59 533.02" stroke="rgba(75, 85, 99, 1)" stroke-width="1.5"></path>
        <path d="M384.59 533.02L358.89 651.37" stroke="rgba(75, 85, 99, 1)" stroke-width="1.5"></path>
        <path d="M384.59 533.02L506.23 687.97" stroke="rgba(75, 85, 99, 1)" stroke-width="1.5"></path>
        <path d="M384.59 533.02L249.49 694.48" stroke="rgba(75, 85, 99, 1)" stroke-width="1.5"></path>
        <path d="M384.59 533.02L555.08 374.96" stroke="rgba(75, 85, 99, 1)" stroke-width="1.5"></path>
        <path d="M358.89 651.37L358.89 651.37" stroke="rgba(75, 85, 99, 1)" stroke-width="1.5"></path>
        <path d="M358.89 651.37L369.55 800.81" stroke="rgba(75, 85, 99, 1)" stroke-width="1.5"></path>
        <path d="M369.55 800.81L369.55 800.81" stroke="rgba(75, 85, 99, 1)" stroke-width="1.5"></path>
        <path d="M555.08 374.96L555.08 374.96" stroke="rgba(75, 85, 99, 1)" stroke-width="1.5"></path>
        <path d="M555.08 374.96L684.14 341.17" stroke="rgba(75, 85, 99, 1)" stroke-width="1.5"></path>
        <path d="M555.08 374.96L695.09 510.67" stroke="rgba(75, 85, 99, 1)" stroke-width="1.5"></path>
        <path d="M555.08 374.96L842.45 410.86" stroke="rgba(75, 85, 99, 1)" stroke-width="1.5"></path>
        <path d="M555.08 374.96L836.72 517.43" stroke="rgba(75, 85, 99, 1)" stroke-width="1.5"></path>
        <path d="M506.23 687.97L506.23 687.97" stroke="rgba(75, 85, 99, 1)" stroke-width="1.5"></path>
        <path d="M506.23 687.97L358.89 651.37" stroke="rgba(75, 85, 99, 1)" stroke-width="1.5"></path>
        <path d="M506.23 687.97L659.74 691.77" stroke="rgba(75, 85, 99, 1)" stroke-width="1.5"></path>
        <path d="M506.23 687.97L552.27 857.51" stroke="rgba(75, 85, 99, 1)" stroke-width="1.5"></path>
        <path d="M506.23 687.97L369.55 800.81" stroke="rgba(75, 85, 99, 1)" stroke-width="1.5"></path>
        <path d="M506.23 687.97L660.51 853.89" stroke="rgba(75, 85, 99, 1)" stroke-width="1.5"></path>
        <path d="M552.27 857.51L552.27 857.51" stroke="rgba(75, 85, 99, 1)" stroke-width="1.5"></path>
        <path d="M552.27 857.51L660.51 853.89" stroke="rgba(75, 85, 99, 1)" stroke-width="1.5"></path>
        <path d="M552.27 857.51L369.55 800.81" stroke="rgba(75, 85, 99, 1)" stroke-width="1.5"></path>
        <path d="M552.27 857.51L659.74 691.77" stroke="rgba(75, 85, 99, 1)" stroke-width="1.5"></path>
        <path d="M552.27 857.51L815.06 852.62" stroke="rgba(75, 85, 99, 1)" stroke-width="1.5"></path>
        <path d="M552.27 857.51L358.89 651.37" stroke="rgba(75, 85, 99, 1)" stroke-width="1.5"></path>
        <path d="M684.14 341.17L684.14 341.17" stroke="rgba(75, 85, 99, 1)" stroke-width="1.5"></path>
        <path d="M684.14 341.17L695.09 510.67" stroke="rgba(75, 85, 99, 1)" stroke-width="1.5"></path>
        <path d="M695.09 510.67L695.09 510.67" stroke="rgba(75, 85, 99, 1)" stroke-width="1.5"></path>
        <path d="M695.09 510.67L836.72 517.43" stroke="rgba(75, 85, 99, 1)" stroke-width="1.5"></path>
        <path d="M695.09 510.67L842.45 410.86" stroke="rgba(75, 85, 99, 1)" stroke-width="1.5"></path>
        <path d="M695.09 510.67L659.74 691.77" stroke="rgba(75, 85, 99, 1)" stroke-width="1.5"></path>
        <path d="M695.09 510.67L802.11 664.13" stroke="rgba(75, 85, 99, 1)" stroke-width="1.5"></path>
        <path d="M659.74 691.77L659.74 691.77" stroke="rgba(75, 85, 99, 1)" stroke-width="1.5"></path>
        <path d="M659.74 691.77L802.11 664.13" stroke="rgba(75, 85, 99, 1)" stroke-width="1.5"></path>
        <path d="M659.74 691.77L660.51 853.89" stroke="rgba(75, 85, 99, 1)" stroke-width="1.5"></path>
        <path d="M659.74 691.77L815.06 852.62" stroke="rgba(75, 85, 99, 1)" stroke-width="1.5"></path>
        <path d="M660.51 853.89L660.51 853.89" stroke="rgba(75, 85, 99, 1)" stroke-width="1.5"></path>
        <path d="M660.51 853.89L815.06 852.62" stroke="rgba(75, 85, 99, 1)" stroke-width="1.5"></path>
        <path d="M853.9 235.14L853.9 235.14" stroke="rgba(75, 85, 99, 1)" stroke-width="1.5"></path>
        <path d="M853.9 235.14L954.99 206.71" stroke="rgba(75, 85, 99, 1)" stroke-width="1.5"></path>
        <path d="M853.9 235.14L951.21 105.61" stroke="rgba(75, 85, 99, 1)" stroke-width="1.5"></path>
        <path d="M853.9 235.14L842.45 410.86" stroke="rgba(75, 85, 99, 1)" stroke-width="1.5"></path>
        <path d="M853.9 235.14L684.14 341.17" stroke="rgba(75, 85, 99, 1)" stroke-width="1.5"></path>
        <path d="M842.45 410.86L842.45 410.86" stroke="rgba(75, 85, 99, 1)" stroke-width="1.5"></path>
        <path d="M842.45 410.86L836.72 517.43" stroke="rgba(75, 85, 99, 1)" stroke-width="1.5"></path>
        <path d="M842.45 410.86L974.17 401.85" stroke="rgba(75, 85, 99, 1)" stroke-width="1.5"></path>
        <path d="M842.45 410.86L990.16 495.01" stroke="rgba(75, 85, 99, 1)" stroke-width="1.5"></path>
        <path d="M842.45 410.86L684.14 341.17" stroke="rgba(75, 85, 99, 1)" stroke-width="1.5"></path>
        <path d="M836.72 517.43L836.72 517.43" stroke="rgba(75, 85, 99, 1)" stroke-width="1.5"></path>
        <path d="M836.72 517.43L802.11 664.13" stroke="rgba(75, 85, 99, 1)" stroke-width="1.5"></path>
        <path d="M836.72 517.43L990.16 495.01" stroke="rgba(75, 85, 99, 1)" stroke-width="1.5"></path>
        <path d="M836.72 517.43L974.17 401.85" stroke="rgba(75, 85, 99, 1)" stroke-width="1.5"></path>
        <path d="M802.11 664.13L802.11 664.13" stroke="rgba(75, 85, 99, 1)" stroke-width="1.5"></path>
        <path d="M815.06 852.62L815.06 852.62" stroke="rgba(75, 85, 99, 1)" stroke-width="1.5"></path>
        <path d="M815.06 852.62L938.9 818.41" stroke="rgba(75, 85, 99, 1)" stroke-width="1.5"></path>
        <path d="M1002.65 -99.82L1002.65 -99.82" stroke="rgba(75, 85, 99, 1)" stroke-width="1.5"></path>
        <path d="M1002.65 -99.82L1129.69 -60.82" stroke="rgba(75, 85, 99, 1)" stroke-width="1.5"></path>
        <path d="M1002.65 -99.82L951.21 105.61" stroke="rgba(75, 85, 99, 1)" stroke-width="1.5"></path>
        <path d="M1002.65 -99.82L1159.85 48.09" stroke="rgba(75, 85, 99, 1)" stroke-width="1.5"></path>
        <path d="M951.21 105.61L951.21 105.61" stroke="rgba(75, 85, 99, 1)" stroke-width="1.5"></path>
        <path d="M951.21 105.61L954.99 206.71" stroke="rgba(75, 85, 99, 1)" stroke-width="1.5"></path>
        <path d="M951.21 105.61L1159.85 48.09" stroke="rgba(75, 85, 99, 1)" stroke-width="1.5"></path>
        <path d="M951.21 105.61L1149.63 192.37" stroke="rgba(75, 85, 99, 1)" stroke-width="1.5"></path>
        <path d="M951.21 105.61L1129.69 -60.82" stroke="rgba(75, 85, 99, 1)" stroke-width="1.5"></path>
        <path d="M954.99 206.71L954.99 206.71" stroke="rgba(75, 85, 99, 1)" stroke-width="1.5"></path>
        <path d="M954.99 206.71L1149.63 192.37" stroke="rgba(75, 85, 99, 1)" stroke-width="1.5"></path>
        <path d="M954.99 206.71L974.17 401.85" stroke="rgba(75, 85, 99, 1)" stroke-width="1.5"></path>
        <path d="M974.17 401.85L974.17 401.85" stroke="rgba(75, 85, 99, 1)" stroke-width="1.5"></path>
        <path d="M974.17 401.85L990.16 495.01" stroke="rgba(75, 85, 99, 1)" stroke-width="1.5"></path>
        <path d="M974.17 401.85L1126.09 404.34" stroke="rgba(75, 85, 99, 1)" stroke-width="1.5"></path>
        <path d="M990.16 495.01L990.16 495.01" stroke="rgba(75, 85, 99, 1)" stroke-width="1.5"></path>
        <path d="M990.16 495.01L1093.99 516.87" stroke="rgba(75, 85, 99, 1)" stroke-width="1.5"></path>
        <path d="M990.16 495.01L994.84 649.86" stroke="rgba(75, 85, 99, 1)" stroke-width="1.5"></path>
        <path d="M994.84 649.86L994.84 649.86" stroke="rgba(75, 85, 99, 1)" stroke-width="1.5"></path>
        <path d="M994.84 649.86L1098.74 638.52" stroke="rgba(75, 85, 99, 1)" stroke-width="1.5"></path>
        <path d="M994.84 649.86L1093.99 516.87" stroke="rgba(75, 85, 99, 1)" stroke-width="1.5"></path>
        <path d="M994.84 649.86L938.9 818.41" stroke="rgba(75, 85, 99, 1)" stroke-width="1.5"></path>
        <path d="M938.9 818.41L938.9 818.41" stroke="rgba(75, 85, 99, 1)" stroke-width="1.5"></path>
        <path d="M938.9 818.41L1120.64 848.19" stroke="rgba(75, 85, 99, 1)" stroke-width="1.5"></path>
        <path d="M938.9 818.41L802.11 664.13" stroke="rgba(75, 85, 99, 1)" stroke-width="1.5"></path>
        <path d="M938.9 818.41L1098.74 638.52" stroke="rgba(75, 85, 99, 1)" stroke-width="1.5"></path>
        <path d="M938.9 818.41L660.51 853.89" stroke="rgba(75, 85, 99, 1)" stroke-width="1.5"></path>
        <path d="M1129.69 -60.82L1129.69 -60.82" stroke="rgba(75, 85, 99, 1)" stroke-width="1.5"></path>
        <path d="M1129.69 -60.82L1159.85 48.09" stroke="rgba(75, 85, 99, 1)" stroke-width="1.5"></path>
        <path d="M1129.69 -60.82L1295.31 -77.77" stroke="rgba(75, 85, 99, 1)" stroke-width="1.5"></path>
        <path d="M1159.85 48.09L1159.85 48.09" stroke="rgba(75, 85, 99, 1)" stroke-width="1.5"></path>
        <path d="M1159.85 48.09L1149.63 192.37" stroke="rgba(75, 85, 99, 1)" stroke-width="1.5"></path>
        <path d="M1149.63 192.37L1149.63 192.37" stroke="rgba(75, 85, 99, 1)" stroke-width="1.5"></path>
        <path d="M1149.63 192.37L1310.9 205.23" stroke="rgba(75, 85, 99, 1)" stroke-width="1.5"></path>
        <path d="M1149.63 192.37L1308.47 107.23" stroke="rgba(75, 85, 99, 1)" stroke-width="1.5"></path>
        <path d="M1149.63 192.37L1126.09 404.34" stroke="rgba(75, 85, 99, 1)" stroke-width="1.5"></path>
        <path d="M1126.09 404.34L1126.09 404.34" stroke="rgba(75, 85, 99, 1)" stroke-width="1.5"></path>
        <path d="M1126.09 404.34L1093.99 516.87" stroke="rgba(75, 85, 99, 1)" stroke-width="1.5"></path>
        <path d="M1126.09 404.34L1287.39 399.32" stroke="rgba(75, 85, 99, 1)" stroke-width="1.5"></path>
        <path d="M1093.99 516.87L1093.99 516.87" stroke="rgba(75, 85, 99, 1)" stroke-width="1.5"></path>
        <path d="M1093.99 516.87L1098.74 638.52" stroke="rgba(75, 85, 99, 1)" stroke-width="1.5"></path>
        <path d="M1093.99 516.87L974.17 401.85" stroke="rgba(75, 85, 99, 1)" stroke-width="1.5"></path>
        <path d="M1093.99 516.87L1307.15 494.37" stroke="rgba(75, 85, 99, 1)" stroke-width="1.5"></path>
        <path d="M1098.74 638.52L1098.74 638.52" stroke="rgba(75, 85, 99, 1)" stroke-width="1.5"></path>
        <path d="M1098.74 638.52L990.16 495.01" stroke="rgba(75, 85, 99, 1)" stroke-width="1.5"></path>
        <path d="M1098.74 638.52L1120.64 848.19" stroke="rgba(75, 85, 99, 1)" stroke-width="1.5"></path>
        <path d="M1098.74 638.52L1312.47 704.08" stroke="rgba(75, 85, 99, 1)" stroke-width="1.5"></path>
        <path d="M1098.74 638.52L1126.09 404.34" stroke="rgba(75, 85, 99, 1)" stroke-width="1.5"></path>
        <path d="M1120.64 848.19L1120.64 848.19" stroke="rgba(75, 85, 99, 1)" stroke-width="1.5"></path>
        <path d="M1120.64 848.19L1279.41 850.49" stroke="rgba(75, 85, 99, 1)" stroke-width="1.5"></path>
        <path d="M1120.64 848.19L994.84 649.86" stroke="rgba(75, 85, 99, 1)" stroke-width="1.5"></path>
        <path d="M1120.64 848.19L1312.47 704.08" stroke="rgba(75, 85, 99, 1)" stroke-width="1.5"></path>
        <path d="M1120.64 848.19L1396.13 810.87" stroke="rgba(75, 85, 99, 1)" stroke-width="1.5"></path>
        <path d="M1295.31 -77.77L1295.31 -77.77" stroke="rgba(75, 85, 99, 1)" stroke-width="1.5"></path>
        <path d="M1295.31 -77.77L1430.25 -77.77" stroke="rgba(75, 85, 99, 1)" stroke-width="1.5"></path>
        <path d="M1295.31 -77.77L1424.55 51.44" stroke="rgba(75, 85, 99, 1)" stroke-width="1.5"></path>
        <path d="M1295.31 -77.77L1159.85 48.09" stroke="rgba(75, 85, 99, 1)" stroke-width="1.5"></path>
        <path d="M1308.47 107.23L1308.47 107.23" stroke="rgba(75, 85, 99, 1)" stroke-width="1.5"></path>
        <path d="M1308.47 107.23L1310.9 205.23" stroke="rgba(75, 85, 99, 1)" stroke-width="1.5"></path>
        <path d="M1308.47 107.23L1424.55 51.44" stroke="rgba(75, 85, 99, 1)" stroke-width="1.5"></path>
        <path d="M1308.47 107.23L1159.85 48.09" stroke="rgba(75, 85, 99, 1)" stroke-width="1.5"></path>
        <path d="M1308.47 107.23L1295.31 -77.77" stroke="rgba(75, 85, 99, 1)" stroke-width="1.5"></path>
        <path d="M1308.47 107.23L1430.25 -77.77" stroke="rgba(75, 85, 99, 1)" stroke-width="1.5"></path>
        <path d="M1310.9 205.23L1310.9 205.23" stroke="rgba(75, 85, 99, 1)" stroke-width="1.5"></path>
        <path d="M1310.9 205.23L1424.55 51.44" stroke="rgba(75, 85, 99, 1)" stroke-width="1.5"></path>
        <path d="M1310.9 205.23L1287.39 399.32" stroke="rgba(75, 85, 99, 1)" stroke-width="1.5"></path>
        <path d="M1287.39 399.32L1287.39 399.32" stroke="rgba(75, 85, 99, 1)" stroke-width="1.5"></path>
        <path d="M1287.39 399.32L1307.15 494.37" stroke="rgba(75, 85, 99, 1)" stroke-width="1.5"></path>
        <path d="M1307.15 494.37L1307.15 494.37" stroke="rgba(75, 85, 99, 1)" stroke-width="1.5"></path>
        <path d="M1307.15 494.37L1416.34 390.81" stroke="rgba(75, 85, 99, 1)" stroke-width="1.5"></path>
        <path d="M1307.15 494.37L1126.09 404.34" stroke="rgba(75, 85, 99, 1)" stroke-width="1.5"></path>
        <path d="M1307.15 494.37L1312.47 704.08" stroke="rgba(75, 85, 99, 1)" stroke-width="1.5"></path>
        <path d="M1312.47 704.08L1312.47 704.08" stroke="rgba(75, 85, 99, 1)" stroke-width="1.5"></path>
        <path d="M1312.47 704.08L1444.8 694.23" stroke="rgba(75, 85, 99, 1)" stroke-width="1.5"></path>
        <path d="M1312.47 704.08L1396.13 810.87" stroke="rgba(75, 85, 99, 1)" stroke-width="1.5"></path>
        <path d="M1312.47 704.08L1279.41 850.49" stroke="rgba(75, 85, 99, 1)" stroke-width="1.5"></path>
        <path d="M1279.41 850.49L1279.41 850.49" stroke="rgba(75, 85, 99, 1)" stroke-width="1.5"></path>
        <path d="M1279.41 850.49L1396.13 810.87" stroke="rgba(75, 85, 99, 1)" stroke-width="1.5"></path>
        <path d="M1279.41 850.49L1444.8 694.23" stroke="rgba(75, 85, 99, 1)" stroke-width="1.5"></path>
        <path d="M1279.41 850.49L1553.54 824.17" stroke="rgba(75, 85, 99, 1)" stroke-width="1.5"></path>
        <path d="M1279.41 850.49L1098.74 638.52" stroke="rgba(75, 85, 99, 1)" stroke-width="1.5"></path>
        <path d="M1430.25 -77.77L1430.25 -77.77" stroke="rgba(75, 85, 99, 1)" stroke-width="1.5"></path>
        <path d="M1430.25 -77.77L1424.55 51.44" stroke="rgba(75, 85, 99, 1)" stroke-width="1.5"></path>
        <path d="M1430.25 -77.77L1563.29 -91.58" stroke="rgba(75, 85, 99, 1)" stroke-width="1.5"></path>
        <path d="M1424.55 51.44L1424.55 51.44" stroke="rgba(75, 85, 99, 1)" stroke-width="1.5"></path>
        <path d="M1424.55 51.44L1567.02 97.43" stroke="rgba(75, 85, 99, 1)" stroke-width="1.5"></path>
        <path d="M1424.55 51.44L1563.29 -91.58" stroke="rgba(75, 85, 99, 1)" stroke-width="1.5"></path>
        <path d="M1416.34 390.81L1416.34 390.81" stroke="rgba(75, 85, 99, 1)" stroke-width="1.5"></path>
        <path d="M1416.34 390.81L1287.39 399.32" stroke="rgba(75, 85, 99, 1)" stroke-width="1.5"></path>
        <path d="M1416.34 390.81L1586.71 503.6" stroke="rgba(75, 85, 99, 1)" stroke-width="1.5"></path>
        <path d="M1416.34 390.81L1310.9 205.23" stroke="rgba(75, 85, 99, 1)" stroke-width="1.5"></path>
        <path d="M1416.34 390.81L1126.09 404.34" stroke="rgba(75, 85, 99, 1)" stroke-width="1.5"></path>
        <path d="M1444.8 694.23L1444.8 694.23" stroke="rgba(75, 85, 99, 1)" stroke-width="1.5"></path>
        <path d="M1444.8 694.23L1396.13 810.87" stroke="rgba(75, 85, 99, 1)" stroke-width="1.5"></path>
        <path d="M1444.8 694.23L1579.91 637.53" stroke="rgba(75, 85, 99, 1)" stroke-width="1.5"></path>
        <path d="M1396.13 810.87L1396.13 810.87" stroke="rgba(75, 85, 99, 1)" stroke-width="1.5"></path>
        <path d="M1563.29 -91.58L1563.29 -91.58" stroke="rgba(75, 85, 99, 1)" stroke-width="1.5"></path>
        <path d="M1563.29 -91.58L1567.02 97.43" stroke="rgba(75, 85, 99, 1)" stroke-width="1.5"></path>
        <path d="M1563.29 -91.58L1295.31 -77.77" stroke="rgba(75, 85, 99, 1)" stroke-width="1.5"></path>
        <path d="M1567.02 97.43L1567.02 97.43" stroke="rgba(75, 85, 99, 1)" stroke-width="1.5"></path>
        <path d="M1567.02 97.43L1430.25 -77.77" stroke="rgba(75, 85, 99, 1)" stroke-width="1.5"></path>
        <path d="M1567.02 97.43L1308.47 107.23" stroke="rgba(75, 85, 99, 1)" stroke-width="1.5"></path>
        <path d="M1586.71 503.6L1586.71 503.6" stroke="rgba(75, 85, 99, 1)" stroke-width="1.5"></path>
        <path d="M1586.71 503.6L1579.91 637.53" stroke="rgba(75, 85, 99, 1)" stroke-width="1.5"></path>
        <path d="M1579.91 637.53L1579.91 637.53" stroke="rgba(75, 85, 99, 1)" stroke-width="1.5"></path>
        <path d="M1553.54 824.17L1553.54 824.17" stroke="rgba(75, 85, 99, 1)" stroke-width="1.5"></path>
        <path d="M1553.54 824.17L1396.13 810.87" stroke="rgba(75, 85, 99, 1)" stroke-width="1.5"></path>
        <path d="M1553.54 824.17L1444.8 694.23" stroke="rgba(75, 85, 99, 1)" stroke-width="1.5"></path>
        <circle r="5" cx="-37.87" cy="493.58" fill="rgba(75, 85, 99, 1)"></circle>
        <circle r="5" cx="-38.12" cy="666.53" fill="rgba(75, 85, 99, 1)"></circle>
        <circle r="5" cx="-42.14" cy="787.99" fill="rgba(75, 85, 99, 1)"></circle>
        <circle r="5" cx="81.01" cy="524.61" fill="rgba(75, 85, 99, 1)"></circle>
        <circle r="5" cx="57.4" cy="672.87" fill="rgba(75, 85, 99, 1)"></circle>
        <circle r="5" cx="45.38" cy="850.72" fill="rgba(75, 85, 99, 1)"></circle>
        <circle r="5" cx="230.8" cy="522.48" fill="rgba(75, 85, 99, 1)"></circle>
        <circle r="5" cx="249.49" cy="694.48" fill="rgba(75, 85, 99, 1)"></circle>
        <circle r="5" cx="246.1" cy="840.84" fill="rgba(75, 85, 99, 1)"></circle>
        <circle r="5" cx="384.59" cy="533.02" fill="rgba(75, 85, 99, 1)"></circle>
        <circle r="5" cx="358.89" cy="651.37" fill="rgba(75, 85, 99, 1)"></circle>
        <circle r="5" cx="369.55" cy="800.81" fill="rgba(75, 85, 99, 1)"></circle>
        <circle r="5" cx="555.08" cy="374.96" fill="rgba(75, 85, 99, 1)"></circle>
        <circle r="5" cx="506.23" cy="687.97" fill="rgba(75, 85, 99, 1)"></circle>
        <circle r="5" cx="552.27" cy="857.51" fill="rgba(75, 85, 99, 1)"></circle>
        <circle r="5" cx="684.14" cy="341.17" fill="rgba(75, 85, 99, 1)"></circle>
        <circle r="5" cx="695.09" cy="510.67" fill="rgba(75, 85, 99, 1)"></circle>
        <circle r="5" cx="659.74" cy="691.77" fill="rgba(75, 85, 99, 1)"></circle>
        <circle r="5" cx="660.51" cy="853.89" fill="rgba(75, 85, 99, 1)"></circle>
        <circle r="5" cx="853.9" cy="235.14" fill="rgba(75, 85, 99, 1)"></circle>
        <circle r="5" cx="842.45" cy="410.86" fill="rgba(75, 85, 99, 1)"></circle>
        <circle r="5" cx="836.72" cy="517.43" fill="rgba(75, 85, 99, 1)"></circle>
        <circle r="5" cx="802.11" cy="664.13" fill="rgba(75, 85, 99, 1)"></circle>
        <circle r="5" cx="815.06" cy="852.62" fill="rgba(75, 85, 99, 1)"></circle>
        <circle r="5" cx="1002.65" cy="-99.82" fill="rgba(75, 85, 99, 1)"></circle>
        <circle r="5" cx="951.21" cy="105.61" fill="rgba(75, 85, 99, 1)"></circle>
        <circle r="5" cx="954.99" cy="206.71" fill="rgba(75, 85, 99, 1)"></circle>
        <circle r="5" cx="974.17" cy="401.85" fill="rgba(75, 85, 99, 1)"></circle>
        <circle r="5" cx="990.16" cy="495.01" fill="rgba(75, 85, 99, 1)"></circle>
        <circle r="5" cx="994.84" cy="649.86" fill="rgba(75, 85, 99, 1)"></circle>
        <circle r="5" cx="938.9" cy="818.41" fill="rgba(75, 85, 99, 1)"></circle>
        <circle r="5" cx="1129.69" cy="-60.82" fill="rgba(75, 85, 99, 1)"></circle>
        <circle r="5" cx="1159.85" cy="48.09" fill="rgba(75, 85, 99, 1)"></circle>
        <circle r="5" cx="1149.63" cy="192.37" fill="rgba(75, 85, 99, 1)"></circle>
        <circle r="5" cx="1126.09" cy="404.34" fill="rgba(75, 85, 99, 1)"></circle>
        <circle r="5" cx="1093.99" cy="516.87" fill="rgba(75, 85, 99, 1)"></circle>
        <circle r="5" cx="1098.74" cy="638.52" fill="rgba(75, 85, 99, 1)"></circle>
        <circle r="5" cx="1120.64" cy="848.19" fill="rgba(75, 85, 99, 1)"></circle>
        <circle r="5" cx="1295.31" cy="-77.77" fill="rgba(75, 85, 99, 1)"></circle>
        <circle r="5" cx="1308.47" cy="107.23" fill="rgba(75, 85, 99, 1)"></circle>
        <circle r="5" cx="1310.9" cy="205.23" fill="rgba(75, 85, 99, 1)"></circle>
        <circle r="5" cx="1287.39" cy="399.32" fill="rgba(75, 85, 99, 1)"></circle>
        <circle r="5" cx="1307.15" cy="494.37" fill="rgba(75, 85, 99, 1)"></circle>
        <circle r="5" cx="1312.47" cy="704.08" fill="rgba(75, 85, 99, 1)"></circle>
        <circle r="5" cx="1279.41" cy="850.49" fill="rgba(75, 85, 99, 1)"></circle>
        <circle r="5" cx="1430.25" cy="-77.77" fill="rgba(75, 85, 99, 1)"></circle>
        <circle r="5" cx="1424.55" cy="51.44" fill="rgba(75, 85, 99, 1)"></circle>
        <circle r="5" cx="1416.34" cy="390.81" fill="rgba(75, 85, 99, 1)"></circle>
        <circle r="5" cx="1444.8" cy="694.23" fill="rgba(75, 85, 99, 1)"></circle>
        <circle r="5" cx="1396.13" cy="810.87" fill="rgba(75, 85, 99, 1)"></circle>
        <circle r="5" cx="1563.29" cy="-91.58" fill="rgba(75, 85, 99, 1)"></circle>
        <circle r="5" cx="1567.02" cy="97.43" fill="rgba(75, 85, 99, 1)"></circle>
        <circle r="5" cx="1586.71" cy="503.6" fill="rgba(75, 85, 99, 1)"></circle>
        <circle r="5" cx="1579.91" cy="637.53" fill="rgba(75, 85, 99, 1)"></circle>
        <circle r="5" cx="1553.54" cy="824.17" fill="rgba(75, 85, 99, 1)"></circle>
        <path d="M-66.62 803.76L-66.62 803.76" stroke="hsl(216, 12.2%, 100%)" stroke-width="1.5"></path>
        <path d="M-66.62 803.76L42.3 839.1" stroke="hsl(216, 12.2%, 100%)" stroke-width="1.5"></path>
        <path d="M-66.62 803.76L-101.18 681.4" stroke="hsl(216, 12.2%, 100%)" stroke-width="1.5"></path>
        <path d="M-66.62 803.76L84.04 701.94" stroke="hsl(216, 12.2%, 100%)" stroke-width="1.5"></path>
        <path d="M42.3 839.1L42.3 839.1" stroke="hsl(216, 12.2%, 100%)" stroke-width="1.5"></path>
        <path d="M42.3 839.1L84.04 701.94" stroke="hsl(216, 12.2%, 100%)" stroke-width="1.5"></path>
        <path d="M42.3 839.1L251.78 856.59" stroke="hsl(216, 12.2%, 100%)" stroke-width="1.5"></path>
        <path d="M669.42 536.52L669.42 536.52" stroke="hsl(216, 12.2%, 100%)" stroke-width="1.5"></path>
        <path d="M669.42 536.52L797.81 528.13" stroke="hsl(216, 12.2%, 100%)" stroke-width="1.5"></path>
        <path d="M669.42 536.52L693.65 666.38" stroke="hsl(216, 12.2%, 100%)" stroke-width="1.5"></path>
        <path d="M669.42 536.52L489.16 642.89" stroke="hsl(216, 12.2%, 100%)" stroke-width="1.5"></path>
        <path d="M669.9 824.26L669.9 824.26" stroke="hsl(216, 12.2%, 100%)" stroke-width="1.5"></path>
        <path d="M669.9 824.26L531.11 797.82" stroke="hsl(216, 12.2%, 100%)" stroke-width="1.5"></path>
        <path d="M669.9 824.26L820.11 855.25" stroke="hsl(216, 12.2%, 100%)" stroke-width="1.5"></path>
        <path d="M820.11 855.25L820.11 855.25" stroke="hsl(216, 12.2%, 100%)" stroke-width="1.5"></path>
        <path d="M820.11 855.25L969.82 812.08" stroke="hsl(216, 12.2%, 100%)" stroke-width="1.5"></path>
        <path d="M820.11 855.25L814.58 698.66" stroke="hsl(216, 12.2%, 100%)" stroke-width="1.5"></path>
        <path d="M820.11 855.25L693.65 666.38" stroke="hsl(216, 12.2%, 100%)" stroke-width="1.5"></path>
        <path d="M820.11 855.25L531.11 797.82" stroke="hsl(216, 12.2%, 100%)" stroke-width="1.5"></path>
        <path d="M1257.08 -67.73L1257.08 -67.73" stroke="hsl(216, 12.2%, 100%)" stroke-width="1.5"></path>
        <path d="M1257.08 -67.73L1255.73 60.98" stroke="hsl(216, 12.2%, 100%)" stroke-width="1.5"></path>
        <path d="M1257.08 -67.73L1409.13 -43.84" stroke="hsl(216, 12.2%, 100%)" stroke-width="1.5"></path>
        <path d="M1262.82 188.29L1262.82 188.29" stroke="hsl(216, 12.2%, 100%)" stroke-width="1.5"></path>
        <path d="M1262.82 188.29L1255.73 60.98" stroke="hsl(216, 12.2%, 100%)" stroke-width="1.5"></path>
        <path d="M1262.82 188.29L1132.46 230.36" stroke="hsl(216, 12.2%, 100%)" stroke-width="1.5"></path>
        <path d="M1262.82 188.29L1159.18 79.95" stroke="hsl(216, 12.2%, 100%)" stroke-width="1.5"></path>
        <path d="M1262.82 188.29L1401.09 73.45" stroke="hsl(216, 12.2%, 100%)" stroke-width="1.5"></path>
        <path d="M1262.82 188.29L1301.54 373.02" stroke="hsl(216, 12.2%, 100%)" stroke-width="1.5"></path>
        <path d="M1262.82 188.29L1460.81 202.32" stroke="hsl(216, 12.2%, 100%)" stroke-width="1.5"></path>
        <path d="M1582.59 693.83L1582.59 693.83" stroke="hsl(216, 12.2%, 100%)" stroke-width="1.5"></path>
        <path d="M1582.59 693.83L1555.8 861.84" stroke="hsl(216, 12.2%, 100%)" stroke-width="1.5"></path>
        <path d="M1582.59 693.83L1557.03 515.23" stroke="hsl(216, 12.2%, 100%)" stroke-width="1.5"></path>
        <path d="M1582.59 693.83L1410.33 638.33" stroke="hsl(216, 12.2%, 100%)" stroke-width="1.5"></path>
        <path d="M1582.59 693.83L1454.72 493.76" stroke="hsl(216, 12.2%, 100%)" stroke-width="1.5"></path>
        <path d="M1582.59 693.83L1303.25 668.79" stroke="hsl(216, 12.2%, 100%)" stroke-width="1.5"></path>
        <path d="M1555.8 861.84L1555.8 861.84" stroke="hsl(216, 12.2%, 100%)" stroke-width="1.5"></path>
        <path d="M1555.8 861.84L1309.39 815.2" stroke="hsl(216, 12.2%, 100%)" stroke-width="1.5"></path>
        <path d="M1555.8 861.84L1410.33 638.33" stroke="hsl(216, 12.2%, 100%)" stroke-width="1.5"></path>
        <path d="M-101.18 681.4L-101.18 681.4" stroke="hsl(216, 12.2%, 100%)" stroke-width="1.5"></path>
        <path d="M-101.18 681.4L84.04 701.94" stroke="hsl(216, 12.2%, 100%)" stroke-width="1.5"></path>
        <path d="M-101.18 681.4L42.3 839.1" stroke="hsl(216, 12.2%, 100%)" stroke-width="1.5"></path>
        <path d="M-101.18 681.4L257.31 649.47" stroke="hsl(216, 12.2%, 100%)" stroke-width="1.5"></path>
        <path d="M84.04 701.94L84.04 701.94" stroke="hsl(216, 12.2%, 100%)" stroke-width="1.5"></path>
        <path d="M84.04 701.94L257.31 649.47" stroke="hsl(216, 12.2%, 100%)" stroke-width="1.5"></path>
        <path d="M257.31 649.47L257.31 649.47" stroke="hsl(216, 12.2%, 100%)" stroke-width="1.5"></path>
        <path d="M257.31 649.47L370.58 644.48" stroke="hsl(216, 12.2%, 100%)" stroke-width="1.5"></path>
        <path d="M257.31 649.47L251.78 856.59" stroke="hsl(216, 12.2%, 100%)" stroke-width="1.5"></path>
        <path d="M251.78 856.59L251.78 856.59" stroke="hsl(216, 12.2%, 100%)" stroke-width="1.5"></path>
        <path d="M251.78 856.59L367.16 834.84" stroke="hsl(216, 12.2%, 100%)" stroke-width="1.5"></path>
        <path d="M251.78 856.59L84.04 701.94" stroke="hsl(216, 12.2%, 100%)" stroke-width="1.5"></path>
        <path d="M370.58 644.48L370.58 644.48" stroke="hsl(216, 12.2%, 100%)" stroke-width="1.5"></path>
        <path d="M370.58 644.48L489.16 642.89" stroke="hsl(216, 12.2%, 100%)" stroke-width="1.5"></path>
        <path d="M370.58 644.48L367.16 834.84" stroke="hsl(216, 12.2%, 100%)" stroke-width="1.5"></path>
        <path d="M370.58 644.48L531.11 797.82" stroke="hsl(216, 12.2%, 100%)" stroke-width="1.5"></path>
        <path d="M370.58 644.48L251.78 856.59" stroke="hsl(216, 12.2%, 100%)" stroke-width="1.5"></path>
        <path d="M367.16 834.84L367.16 834.84" stroke="hsl(216, 12.2%, 100%)" stroke-width="1.5"></path>
        <path d="M489.16 642.89L489.16 642.89" stroke="hsl(216, 12.2%, 100%)" stroke-width="1.5"></path>
        <path d="M489.16 642.89L531.11 797.82" stroke="hsl(216, 12.2%, 100%)" stroke-width="1.5"></path>
        <path d="M489.16 642.89L693.65 666.38" stroke="hsl(216, 12.2%, 100%)" stroke-width="1.5"></path>
        <path d="M489.16 642.89L367.16 834.84" stroke="hsl(216, 12.2%, 100%)" stroke-width="1.5"></path>
        <path d="M531.11 797.82L531.11 797.82" stroke="hsl(216, 12.2%, 100%)" stroke-width="1.5"></path>
        <path d="M531.11 797.82L367.16 834.84" stroke="hsl(216, 12.2%, 100%)" stroke-width="1.5"></path>
        <path d="M531.11 797.82L693.65 666.38" stroke="hsl(216, 12.2%, 100%)" stroke-width="1.5"></path>
        <path d="M531.11 797.82L251.78 856.59" stroke="hsl(216, 12.2%, 100%)" stroke-width="1.5"></path>
        <path d="M693.65 666.38L693.65 666.38" stroke="hsl(216, 12.2%, 100%)" stroke-width="1.5"></path>
        <path d="M693.65 666.38L814.58 698.66" stroke="hsl(216, 12.2%, 100%)" stroke-width="1.5"></path>
        <path d="M693.65 666.38L669.9 824.26" stroke="hsl(216, 12.2%, 100%)" stroke-width="1.5"></path>
        <path d="M797.81 528.13L797.81 528.13" stroke="hsl(216, 12.2%, 100%)" stroke-width="1.5"></path>
        <path d="M797.81 528.13L814.58 698.66" stroke="hsl(216, 12.2%, 100%)" stroke-width="1.5"></path>
        <path d="M814.58 698.66L814.58 698.66" stroke="hsl(216, 12.2%, 100%)" stroke-width="1.5"></path>
        <path d="M980.43 534.01L980.43 534.01" stroke="hsl(216, 12.2%, 100%)" stroke-width="1.5"></path>
        <path d="M980.43 534.01L1146.67 560.37" stroke="hsl(216, 12.2%, 100%)" stroke-width="1.5"></path>
        <path d="M980.43 534.01L797.81 528.13" stroke="hsl(216, 12.2%, 100%)" stroke-width="1.5"></path>
        <path d="M980.43 534.01L1155.68 679.94" stroke="hsl(216, 12.2%, 100%)" stroke-width="1.5"></path>
        <path d="M980.43 534.01L814.58 698.66" stroke="hsl(216, 12.2%, 100%)" stroke-width="1.5"></path>
        <path d="M980.43 534.01L1157.71 375.45" stroke="hsl(216, 12.2%, 100%)" stroke-width="1.5"></path>
        <path d="M980.43 534.01L1238.64 521.4" stroke="hsl(216, 12.2%, 100%)" stroke-width="1.5"></path>
        <path d="M969.82 812.08L969.82 812.08" stroke="hsl(216, 12.2%, 100%)" stroke-width="1.5"></path>
        <path d="M969.82 812.08L1141.03 845.31" stroke="hsl(216, 12.2%, 100%)" stroke-width="1.5"></path>
        <path d="M969.82 812.08L814.58 698.66" stroke="hsl(216, 12.2%, 100%)" stroke-width="1.5"></path>
        <path d="M969.82 812.08L1155.68 679.94" stroke="hsl(216, 12.2%, 100%)" stroke-width="1.5"></path>
        <path d="M969.82 812.08L980.43 534.01" stroke="hsl(216, 12.2%, 100%)" stroke-width="1.5"></path>
        <path d="M969.82 812.08L669.9 824.26" stroke="hsl(216, 12.2%, 100%)" stroke-width="1.5"></path>
        <path d="M1159.18 79.95L1159.18 79.95" stroke="hsl(216, 12.2%, 100%)" stroke-width="1.5"></path>
        <path d="M1159.18 79.95L1255.73 60.98" stroke="hsl(216, 12.2%, 100%)" stroke-width="1.5"></path>
        <path d="M1159.18 79.95L1132.46 230.36" stroke="hsl(216, 12.2%, 100%)" stroke-width="1.5"></path>
        <path d="M1159.18 79.95L1257.08 -67.73" stroke="hsl(216, 12.2%, 100%)" stroke-width="1.5"></path>
        <path d="M1132.46 230.36L1132.46 230.36" stroke="hsl(216, 12.2%, 100%)" stroke-width="1.5"></path>
        <path d="M1132.46 230.36L1157.71 375.45" stroke="hsl(216, 12.2%, 100%)" stroke-width="1.5"></path>
        <path d="M1132.46 230.36L1255.73 60.98" stroke="hsl(216, 12.2%, 100%)" stroke-width="1.5"></path>
        <path d="M1132.46 230.36L1301.54 373.02" stroke="hsl(216, 12.2%, 100%)" stroke-width="1.5"></path>
        <path d="M1157.71 375.45L1157.71 375.45" stroke="hsl(216, 12.2%, 100%)" stroke-width="1.5"></path>
        <path d="M1157.71 375.45L1301.54 373.02" stroke="hsl(216, 12.2%, 100%)" stroke-width="1.5"></path>
        <path d="M1146.67 560.37L1146.67 560.37" stroke="hsl(216, 12.2%, 100%)" stroke-width="1.5"></path>
        <path d="M1146.67 560.37L1238.64 521.4" stroke="hsl(216, 12.2%, 100%)" stroke-width="1.5"></path>
        <path d="M1146.67 560.37L1155.68 679.94" stroke="hsl(216, 12.2%, 100%)" stroke-width="1.5"></path>
        <path d="M1146.67 560.37L1157.71 375.45" stroke="hsl(216, 12.2%, 100%)" stroke-width="1.5"></path>
        <path d="M1146.67 560.37L1303.25 668.79" stroke="hsl(216, 12.2%, 100%)" stroke-width="1.5"></path>
        <path d="M1155.68 679.94L1155.68 679.94" stroke="hsl(216, 12.2%, 100%)" stroke-width="1.5"></path>
        <path d="M1141.03 845.31L1141.03 845.31" stroke="hsl(216, 12.2%, 100%)" stroke-width="1.5"></path>
        <path d="M1141.03 845.31L1155.68 679.94" stroke="hsl(216, 12.2%, 100%)" stroke-width="1.5"></path>
        <path d="M1141.03 845.31L1309.39 815.2" stroke="hsl(216, 12.2%, 100%)" stroke-width="1.5"></path>
        <path d="M1141.03 845.31L1303.25 668.79" stroke="hsl(216, 12.2%, 100%)" stroke-width="1.5"></path>
        <path d="M1141.03 845.31L1146.67 560.37" stroke="hsl(216, 12.2%, 100%)" stroke-width="1.5"></path>
        <path d="M1255.73 60.98L1255.73 60.98" stroke="hsl(216, 12.2%, 100%)" stroke-width="1.5"></path>
        <path d="M1301.54 373.02L1301.54 373.02" stroke="hsl(216, 12.2%, 100%)" stroke-width="1.5"></path>
        <path d="M1301.54 373.02L1238.64 521.4" stroke="hsl(216, 12.2%, 100%)" stroke-width="1.5"></path>
        <path d="M1301.54 373.02L1454.72 493.76" stroke="hsl(216, 12.2%, 100%)" stroke-width="1.5"></path>
        <path d="M1301.54 373.02L1460.81 202.32" stroke="hsl(216, 12.2%, 100%)" stroke-width="1.5"></path>
        <path d="M1238.64 521.4L1238.64 521.4" stroke="hsl(216, 12.2%, 100%)" stroke-width="1.5"></path>
        <path d="M1238.64 521.4L1303.25 668.79" stroke="hsl(216, 12.2%, 100%)" stroke-width="1.5"></path>
        <path d="M1238.64 521.4L1157.71 375.45" stroke="hsl(216, 12.2%, 100%)" stroke-width="1.5"></path>
        <path d="M1238.64 521.4L1155.68 679.94" stroke="hsl(216, 12.2%, 100%)" stroke-width="1.5"></path>
        <path d="M1238.64 521.4L1410.33 638.33" stroke="hsl(216, 12.2%, 100%)" stroke-width="1.5"></path>
        <path d="M1303.25 668.79L1303.25 668.79" stroke="hsl(216, 12.2%, 100%)" stroke-width="1.5"></path>
        <path d="M1303.25 668.79L1410.33 638.33" stroke="hsl(216, 12.2%, 100%)" stroke-width="1.5"></path>
        <path d="M1303.25 668.79L1309.39 815.2" stroke="hsl(216, 12.2%, 100%)" stroke-width="1.5"></path>
        <path d="M1303.25 668.79L1155.68 679.94" stroke="hsl(216, 12.2%, 100%)" stroke-width="1.5"></path>
        <path d="M1309.39 815.2L1309.39 815.2" stroke="hsl(216, 12.2%, 100%)" stroke-width="1.5"></path>
        <path d="M1409.13 -43.84L1409.13 -43.84" stroke="hsl(216, 12.2%, 100%)" stroke-width="1.5"></path>
        <path d="M1409.13 -43.84L1401.09 73.45" stroke="hsl(216, 12.2%, 100%)" stroke-width="1.5"></path>
        <path d="M1409.13 -43.84L1255.73 60.98" stroke="hsl(216, 12.2%, 100%)" stroke-width="1.5"></path>
        <path d="M1401.09 73.45L1401.09 73.45" stroke="hsl(216, 12.2%, 100%)" stroke-width="1.5"></path>
        <path d="M1401.09 73.45L1460.81 202.32" stroke="hsl(216, 12.2%, 100%)" stroke-width="1.5"></path>
        <path d="M1401.09 73.45L1255.73 60.98" stroke="hsl(216, 12.2%, 100%)" stroke-width="1.5"></path>
        <path d="M1460.81 202.32L1460.81 202.32" stroke="hsl(216, 12.2%, 100%)" stroke-width="1.5"></path>
        <path d="M1460.81 202.32L1549.21 207.17" stroke="hsl(216, 12.2%, 100%)" stroke-width="1.5"></path>
        <path d="M1460.81 202.32L1602.64 87.46" stroke="hsl(216, 12.2%, 100%)" stroke-width="1.5"></path>
        <path d="M1460.81 202.32L1590.65 348.46" stroke="hsl(216, 12.2%, 100%)" stroke-width="1.5"></path>
        <path d="M1454.72 493.76L1454.72 493.76" stroke="hsl(216, 12.2%, 100%)" stroke-width="1.5"></path>
        <path d="M1454.72 493.76L1557.03 515.23" stroke="hsl(216, 12.2%, 100%)" stroke-width="1.5"></path>
        <path d="M1454.72 493.76L1410.33 638.33" stroke="hsl(216, 12.2%, 100%)" stroke-width="1.5"></path>
        <path d="M1410.33 638.33L1410.33 638.33" stroke="hsl(216, 12.2%, 100%)" stroke-width="1.5"></path>
        <path d="M1600.89 -40.74L1600.89 -40.74" stroke="hsl(216, 12.2%, 100%)" stroke-width="1.5"></path>
        <path d="M1600.89 -40.74L1602.64 87.46" stroke="hsl(216, 12.2%, 100%)" stroke-width="1.5"></path>
        <path d="M1600.89 -40.74L1409.13 -43.84" stroke="hsl(216, 12.2%, 100%)" stroke-width="1.5"></path>
        <path d="M1602.64 87.46L1602.64 87.46" stroke="hsl(216, 12.2%, 100%)" stroke-width="1.5"></path>
        <path d="M1602.64 87.46L1549.21 207.17" stroke="hsl(216, 12.2%, 100%)" stroke-width="1.5"></path>
        <path d="M1549.21 207.17L1549.21 207.17" stroke="hsl(216, 12.2%, 100%)" stroke-width="1.5"></path>
        <path d="M1549.21 207.17L1590.65 348.46" stroke="hsl(216, 12.2%, 100%)" stroke-width="1.5"></path>
        <path d="M1590.65 348.46L1590.65 348.46" stroke="hsl(216, 12.2%, 100%)" stroke-width="1.5"></path>
        <path d="M1590.65 348.46L1557.03 515.23" stroke="hsl(216, 12.2%, 100%)" stroke-width="1.5"></path>
        <path d="M1590.65 348.46L1454.72 493.76" stroke="hsl(216, 12.2%, 100%)" stroke-width="1.5"></path>
        <path d="M1557.03 515.23L1557.03 515.23" stroke="hsl(216, 12.2%, 100%)" stroke-width="1.5"></path>
        <circle r="25" cx="-66.62" cy="803.76" fill="url(&quot;#SvgjsRadialGradient1291&quot;)"></circle>
        <circle r="25" cx="42.3" cy="839.1" fill="url(&quot;#SvgjsRadialGradient1291&quot;)"></circle>
        <circle r="25" cx="669.42" cy="536.52" fill="url(&quot;#SvgjsRadialGradient1291&quot;)"></circle>
        <circle r="25" cx="669.9" cy="824.26" fill="url(&quot;#SvgjsRadialGradient1291&quot;)"></circle>
        <circle r="25" cx="820.11" cy="855.25" fill="url(&quot;#SvgjsRadialGradient1291&quot;)"></circle>
        <circle r="25" cx="1257.08" cy="-67.73" fill="url(&quot;#SvgjsRadialGradient1291&quot;)"></circle>
        <circle r="25" cx="1262.82" cy="188.29" fill="url(&quot;#SvgjsRadialGradient1291&quot;)"></circle>
        <circle r="25" cx="1582.59" cy="693.83" fill="url(&quot;#SvgjsRadialGradient1291&quot;)"></circle>
        <circle r="25" cx="1555.8" cy="861.84" fill="url(&quot;#SvgjsRadialGradient1291&quot;)"></circle>
        <circle r="5" cx="-101.18" cy="681.4" fill="#e8eaed"></circle>
        <circle r="5" cx="84.04" cy="701.94" fill="#e8eaed"></circle>
        <circle r="5" cx="257.31" cy="649.47" fill="#e8eaed"></circle>
        <circle r="5" cx="251.78" cy="856.59" fill="#e8eaed"></circle>
        <circle r="5" cx="370.58" cy="644.48" fill="#e8eaed"></circle>
        <circle r="5" cx="367.16" cy="834.84" fill="#e8eaed"></circle>
        <circle r="5" cx="489.16" cy="642.89" fill="#e8eaed"></circle>
        <circle r="5" cx="531.11" cy="797.82" fill="#e8eaed"></circle>
        <circle r="5" cx="693.65" cy="666.38" fill="#e8eaed"></circle>
        <circle r="5" cx="797.81" cy="528.13" fill="#e8eaed"></circle>
        <circle r="5" cx="814.58" cy="698.66" fill="#e8eaed"></circle>
        <circle r="5" cx="980.43" cy="534.01" fill="#e8eaed"></circle>
        <circle r="5" cx="969.82" cy="812.08" fill="#e8eaed"></circle>
        <circle r="5" cx="1159.18" cy="79.95" fill="#e8eaed"></circle>
        <circle r="5" cx="1132.46" cy="230.36" fill="#e8eaed"></circle>
        <circle r="5" cx="1157.71" cy="375.45" fill="#e8eaed"></circle>
        <circle r="5" cx="1146.67" cy="560.37" fill="#e8eaed"></circle>
        <circle r="5" cx="1155.68" cy="679.94" fill="#e8eaed"></circle>
        <circle r="5" cx="1141.03" cy="845.31" fill="#e8eaed"></circle>
        <circle r="5" cx="1255.73" cy="60.98" fill="#e8eaed"></circle>
        <circle r="5" cx="1301.54" cy="373.02" fill="#e8eaed"></circle>
        <circle r="5" cx="1238.64" cy="521.4" fill="#e8eaed"></circle>
        <circle r="5" cx="1303.25" cy="668.79" fill="#e8eaed"></circle>
        <circle r="5" cx="1309.39" cy="815.2" fill="#e8eaed"></circle>
        <circle r="5" cx="1409.13" cy="-43.84" fill="#e8eaed"></circle>
        <circle r="5" cx="1401.09" cy="73.45" fill="#e8eaed"></circle>
        <circle r="5" cx="1460.81" cy="202.32" fill="#e8eaed"></circle>
        <circle r="5" cx="1454.72" cy="493.76" fill="#e8eaed"></circle>
        <circle r="5" cx="1410.33" cy="638.33" fill="#e8eaed"></circle>
        <circle r="5" cx="1600.89" cy="-40.74" fill="#e8eaed"></circle>
        <circle r="5" cx="1602.64" cy="87.46" fill="#e8eaed"></circle>
        <circle r="5" cx="1549.21" cy="207.17" fill="#e8eaed"></circle>
        <circle r="5" cx="1590.65" cy="348.46" fill="#e8eaed"></circle>
        <circle r="5" cx="1557.03" cy="515.23" fill="#e8eaed"></circle>
    </g>
    <defs>
        <mask id="SvgjsMask1290">
            <rect width="1440" height="700" fill="#ffffff"></rect>
        </mask>
        <radialGradient id="SvgjsRadialGradient1291">
            <stop stop-color="#ffffff" offset="0.1"></stop>
            <stop stop-color="rgba(209, 213, 219, 1)" offset="0.2"></stop>
            <stop stop-color="rgba(209, 213, 219, 0)" offset="1"></stop>
        </radialGradient>
    </defs>
</svg>